# xmcd
# 
# Track frame offsets:
#     150
#     17180
#     40167
#     59970
#     83195
#     96100
#     116290
#     130407
#     147987
#     165155
# 
# Disc length: 2495
# 
# Revision: 0
# Processed by: cddbd v1.5.2PL0 Copyright (c) Steve Scherf et al.
# Submitted via: fre:ac v1.0.17
# 
DISCID=8409bd0a
DTITLE=Dan Baird - Love Songs For The Hearing Impaired
DYEAR=1992
DGENRE=Rock
TTITLE0=The One I Am
TTITLE1=Julie and Lucky
TTITLE2=I Love You Period
TTITLE3=Look At What You Started
TTITLE4=Seriously Gone
TTITLE5=Pick Up The Knife
TTITLE6=Knocked Up
TTITLE7=Baby Talk
TTITLE8=Lost Highway
TTITLE9=Dixie Beauxderaunt
EXTD=YEAR: 1992
EXTT0=
EXTT1=
EXTT2=
EXTT3=
EXTT4=
EXTT5=
EXTT6=
EXTT7=
EXTT8=
EXTT9=
PLAYORDER=
